<?xml version="1.0" standalone="no"?>
<!DOCTYPE svg PUBLIC "-//W3C//DTD SVG 20010904//EN"
 "http://www.w3.org/TR/2001/REC-SVG-20010904/DTD/svg10.dtd">
<svg version="1.0" xmlns="http://www.w3.org/2000/svg"
 width="500.000000pt" height="500.000000pt" viewBox="0 0 500.000000 500.000000"
 preserveAspectRatio="xMidYMid meet">
<metadata>
Created by potrace 1.16, written by Peter Selinger 2001-2019
</metadata>
<g transform="translate(0.000000,500.000000) scale(0.100000,-0.100000)"
fill="#000000" stroke="none">
<path d="M2448 3813 c-31 -20 -48 -52 -48 -95 0 -22 10 -40 35 -64 l35 -33 0
-280 c0 -270 1 -280 20 -286 11 -3 24 -3 30 0 6 4 10 109 10 286 l0 280 35 33
c25 24 35 42 35 64 0 88 -81 139 -152 95z"/>
<path d="M2115 3749 c-141 -65 -434 -129 -586 -129 -21 0 -39 -4 -39 -9 0 -18
88 -127 139 -173 72 -64 146 -99 242 -112 60 -8 79 -14 79 -26 0 -31 48 -118
76 -137 16 -12 46 -25 67 -31 33 -9 38 -9 33 4 -3 9 -6 22 -6 30 0 8 -15 24
-34 35 -31 18 -76 87 -76 116 0 5 29 18 65 28 70 18 96 38 77 57 -8 8 -33 8
-95 -2 -93 -14 -215 -9 -262 10 -29 12 -26 13 66 30 126 23 200 45 271 81 58
29 70 47 45 68 -10 8 -32 3 -86 -20 -80 -33 -224 -65 -348 -75 l-79 -7 -32 41
-32 40 67 7 c177 17 333 57 472 121 41 19 77 34 82 34 4 0 11 -14 14 -32 19
-84 62 -148 127 -188 43 -26 48 -25 48 9 0 20 -12 41 -44 72 -31 31 -49 60
-60 98 -34 116 -54 122 -191 60z"/>
<path d="M2731 3771 c-10 -10 -27 -45 -36 -77 -12 -43 -29 -70 -61 -103 -32
-31 -44 -52 -44 -72 0 -35 9 -36 60 -4 49 31 86 84 106 152 8 29 19 55 24 58
4 2 41 -10 81 -29 135 -62 271 -97 477 -123 l64 -8 -34 -39 -35 -40 -110 12
c-129 14 -256 44 -332 79 -46 21 -56 23 -68 11 -23 -24 -5 -44 66 -76 80 -36
124 -49 251 -72 92 -17 94 -18 65 -30 -47 -19 -169 -24 -262 -10 -57 9 -87 10
-94 3 -17 -17 17 -42 82 -60 32 -9 59 -20 59 -24 0 -33 -38 -93 -70 -114 -43
-27 -61 -75 -28 -75 63 0 128 61 149 141 l12 45 76 10 c102 14 174 49 253 123
58 54 128 144 128 164 0 4 -19 7 -42 7 -70 0 -302 37 -405 65 -52 14 -134 43
-181 65 -95 45 -123 49 -151 21z"/>
</g>
</svg>
